<?xml version="1.0" encoding="utf-8"?>
<svg xmlns="http://www.w3.org/2000/svg"
    width="461.929"
    height="271.476"
    viewBox="304.999 266.321 177.665 104.414">
    <path d="M477.629,310.934c-0.307,4.152-0.215,8.334-0.516,12.488c-0.49,6.8-2.412,13.275-4.691,19.674
        c-1.152,3.239-2.326,6.445-4.466,9.169c-1.075,1.368-2.172,2.849-3.578,3.809c-4.628,3.157-9.603,5.75-15.218,6.526
        c-5.498,0.761-11.051,1.156-16.585,1.645c-3.596,0.315-7.197,0.605-10.802,0.743c-4.818,0.185-9.642,0.33-14.464,0.285
        c-7.511-0.07-15.032-0.119-22.526-0.538c-7.973-0.446-15.968-0.976-23.864-2.103c-6.4-0.914-12.838-2.258-18.951-4.327
        c-8.357-2.825-12.949-9.251-14.064-18.001c-0.362-2.846-0.314-5.744-0.475-8.614c-0.088-1.559-0.177-3.119-0.348-4.669
        c-0.067-0.598-0.263-1.573-0.591-1.663c-0.619-0.166-1.653-0.06-2.035,0.363c-3.399,3.776-8.6,5.141-11.917,8.994
        c-0.038,0.042-0.147,0.023-0.457,0.064c0.199-0.501,0.289-0.939,0.523-1.282c2.814-4.14,5.648-8.268,8.481-12.395
        c1.209-1.757,2.398-3.528,3.658-5.249c1.897-2.594,2.916-5.52,3.508-8.644c0.691-3.641,1.392-7.283,2.215-10.897
        c0.449-1.968,0.96-3.972,1.807-5.79c1.156-2.478,3.465-3.827,5.929-4.765c6.306-2.403,12.895-3.313,19.607-3.527
        c6.944-0.222,13.886-0.521,20.829-0.747c8.521-0.275,17.024-1.239,25.567-0.575c7.772,0.603,15.56,1.021,23.307,1.835
        c4.684,0.49,9.304,1.578,13.951,2.397c0.82,0.144,1.637,0.406,2.461,0.423c6.783,0.139,13.117,2.353,19.547,4.143
        c4.194,1.168,7.163,4.148,10.243,6.956c0.264,0.24,0.472,0.591,0.602,0.931C475.962,301.902,477.986,306.086,477.629,310.934z"/>
</svg>
