<svg xmlns="http://www.w3.org/2000/svg" viewBox="36 47.9 493 98.1" width="493" height="98.1">
    <defs>
        <linearGradient id="gold" x1="0" y1="0" x2="0" y2="1">
            <stop offset="0" stop-color="#f7cf6b"/>
            <stop offset="1" stop-color="#e2ab38"/>
        </linearGradient>
    </defs>
    <g id="mark" transform="translate(31.9,129.5)">
        <path
            d="M4.1000000000000005 0.0V-13.8L54.800000000000004 -64.5L68.2 -60.1H4.5V-75.0H75.5V-61.300000000000004L24.8 -10.5L13.3 -15.0H75.8V0.0Z"
            fill="#030213"/>
        <path
            d="M137.8 0.0 135.3 -20.700000000000003 138.0 -28.5 135.3 -36.2 137.8 -57.0H157.10000000000002L153.60000000000002 -28.5L157.10000000000002 0.0ZM142.4 -28.5Q140.9 -19.400000000000002 136.7 -12.650000000000002Q132.5 -5.9 126.1 -2.1500000000000004Q119.7 1.6 111.7 1.6Q103.3 1.6 96.94999999999999 -2.2Q90.6 -6.0 87.0 -12.75Q83.4 -19.5 83.4 -28.5Q83.4 -37.5 87.0 -44.25Q90.6 -51.0 96.94999999999999 -54.8Q103.3 -58.6 111.7 -58.6Q119.7 -58.6 126.1 -54.85Q132.5 -51.1 136.75 -44.400000000000006Q141.0 -37.7 142.4 -28.5ZM102.2 -28.5Q102.2 -23.900000000000002 104.1 -20.35Q106.0 -16.8 109.35 -14.75Q112.7 -12.700000000000001 117.1 -12.700000000000001Q121.5 -12.700000000000001 125.45 -14.75Q129.4 -16.8 132.4 -20.35Q135.4 -23.900000000000002 136.9 -28.5Q135.4 -33.1 132.4 -36.650000000000006Q129.4 -40.2 125.45 -42.25Q121.5 -44.300000000000004 117.1 -44.300000000000004Q112.7 -44.300000000000004 109.35 -42.25Q106.0 -40.2 104.1 -36.650000000000006Q102.2 -33.1 102.2 -28.5Z"
            fill="#030213"/>
        <path d="M167.60000000000002 -77.0H186.10000000000002V0.0H167.60000000000002Z" fill="#030213"/>
        <path
            d="M198.10000000000002 -57.800000000000004 207.3 -55.900000000000006 216.60000000000002 -57.800000000000004V0.0H198.10000000000002ZM207.40000000000003 -63.0Q202.50000000000003 -63.0 199.40000000000003 -65.55000000000001Q196.3 -68.10000000000001 196.3 -72.3Q196.3 -76.60000000000001 199.40000000000003 -79.10000000000001Q202.50000000000003 -81.60000000000001 207.40000000000003 -81.60000000000001Q212.40000000000003 -81.60000000000001 215.40000000000003 -79.10000000000001Q218.40000000000003 -76.60000000000001 218.40000000000003 -72.3Q218.40000000000003 -68.10000000000001 215.40000000000003 -65.55000000000001Q212.40000000000003 -63.0 207.40000000000003 -63.0Z"
            fill="#030213"/>
        <path
            d="M228.60000000000002 -57.0H247.10000000000002V-39.800000000000004L246.40000000000003 -37.4V-22.6L247.10000000000002 -18.2V16.5H228.60000000000002ZM241.00000000000003 -28.5Q242.50000000000003 -37.7 246.70000000000005 -44.400000000000006Q250.90000000000003 -51.1 257.35 -54.85Q263.8 -58.6 271.70000000000005 -58.6Q280.1 -58.6 286.45000000000005 -54.8Q292.8 -51.0 296.4 -44.25Q300.0 -37.5 300.0 -28.5Q300.0 -19.5 296.4 -12.75Q292.8 -6.0 286.45000000000005 -2.2Q280.1 1.6 271.70000000000005 1.6Q263.70000000000005 1.6 257.35 -2.1500000000000004Q251.00000000000003 -5.9 246.8 -12.650000000000002Q242.60000000000002 -19.400000000000002 241.00000000000003 -28.5ZM281.20000000000005 -28.5Q281.20000000000005 -33.1 279.30000000000007 -36.650000000000006Q277.40000000000003 -40.2 274.05000000000007 -42.25Q270.70000000000005 -44.300000000000004 266.40000000000003 -44.300000000000004Q262.0 -44.300000000000004 258.0 -42.25Q254.00000000000003 -40.2 251.05 -36.650000000000006Q248.10000000000002 -33.1 246.50000000000003 -28.5Q248.10000000000002 -23.900000000000002 251.05 -20.35Q254.00000000000003 -16.8 258.0 -14.75Q262.0 -12.700000000000001 266.40000000000003 -12.700000000000001Q270.70000000000005 -12.700000000000001 274.05000000000007 -14.75Q277.40000000000003 -16.8 279.30000000000007 -20.35Q281.20000000000005 -23.900000000000002 281.20000000000005 -28.5Z"
            fill="#030213"/>
        <path
            d="M342.6 1.6Q331.8 1.6 323.70000000000005 -2.2Q315.6 -6.0 311.1 -12.8Q306.6 -19.6 306.6 -28.5Q306.6 -37.5 311.1 -44.25Q315.6 -51.0 323.75 -54.8Q331.90000000000003 -58.6 342.6 -58.6Q353.40000000000003 -58.6 361.55000000000007 -54.8Q369.70000000000005 -51.0 374.20000000000005 -44.25Q378.70000000000005 -37.5 378.70000000000005 -28.5Q378.70000000000005 -19.5 374.20000000000005 -12.75Q369.70000000000005 -6.0 361.55000000000007 -2.2Q353.40000000000003 1.6 342.6 1.6ZM342.6 -12.4Q348.1 -12.4 351.95000000000005 -14.350000000000001Q355.80000000000007 -16.3 357.85 -19.9Q359.90000000000003 -23.5 359.90000000000003 -28.5Q359.90000000000003 -33.5 357.85 -37.1Q355.80000000000007 -40.7 351.95000000000005 -42.650000000000006Q348.1 -44.6 342.6 -44.6Q337.3 -44.6 333.40000000000003 -42.650000000000006Q329.50000000000006 -40.7 327.40000000000003 -37.1Q325.3 -33.5 325.3 -28.5Q325.3 -23.5 327.40000000000003 -19.9Q329.50000000000006 -16.3 333.40000000000003 -14.350000000000001Q337.3 -12.4 342.6 -12.4Z"
            fill="url(#gold)"/>
        <path
            d="M426.80000000000007 -64.7Q420.00000000000006 -64.7 417.15000000000003 -62.1Q414.3 -59.5 414.3 -53.900000000000006V0.0H395.70000000000005V-52.800000000000004Q395.70000000000005 -60.900000000000006 398.90000000000003 -66.65Q402.1 -72.4 408.55000000000007 -75.5Q415.00000000000006 -78.60000000000001 424.6 -78.60000000000001Q429.00000000000006 -78.60000000000001 432.4000000000001 -77.95000000000002Q435.80000000000007 -77.30000000000001 439.50000000000006 -76.2V-62.400000000000006Q436.50000000000006 -63.5 433.4000000000001 -64.1Q430.30000000000007 -64.7 426.80000000000007 -64.7ZM384.00000000000006 -38.6V-52.5H438.20000000000005V-38.6Z"
            fill="url(#gold)"/>
        <path
            d="M484.4000000000001 -64.7Q477.6000000000001 -64.7 474.75000000000006 -62.1Q471.90000000000003 -59.5 471.90000000000003 -53.900000000000006V0.0H453.30000000000007V-52.800000000000004Q453.30000000000007 -60.900000000000006 456.50000000000006 -66.65Q459.70000000000005 -72.4 466.1500000000001 -75.5Q472.6000000000001 -78.60000000000001 482.20000000000005 -78.60000000000001Q486.6000000000001 -78.60000000000001 490.0000000000001 -77.95000000000002Q493.4000000000001 -77.30000000000001 497.1000000000001 -76.2V-62.400000000000006Q494.1000000000001 -63.5 491.0000000000001 -64.1Q487.9000000000001 -64.7 484.4000000000001 -64.7ZM441.6000000000001 -38.6V-52.5H495.80000000000007V-38.6Z"
            fill="url(#gold)"/>
    </g>
</svg>
