<?xml version="1.0" encoding="utf-8"?>
<!-- Generator: Adobe Illustrator 27.5.0, SVG Export Plug-In . SVG Version: 6.00 Build 0)  -->
<svg version="1.1" xmlns="http://www.w3.org/2000/svg" x="0px" y="0px"
	 width="461.929" height="271.476" viewBox="304.999 266.321 177.665 104.414" xml:space="preserve">
<g id="OBJECTS">
	<g>
		<path style="fill-rule:evenodd;clip-rule:evenodd;" d="M466.885,288.112c-5.405-2.27-11.36-3.26-17.113-4.642
			c-2.332-0.561-4.781-0.623-7.159-1.012c-5.126-0.839-10.224-1.859-15.365-2.579c-4.04-0.565-8.129-0.801-12.197-1.166
			c-8.329-0.75-16.671-1.064-25.03-0.745c-11.57,0.44-23.14,0.931-34.712,1.339c-6.927,0.246-13.624,1.61-19.943,4.392
			c-3.36,1.479-6.091,3.844-6.96,7.773c-0.981,4.435-2.406,8.798-3.034,13.278c-0.699,4.976-2.946,9.122-5.643,13.134
			c-2.375,3.533-4.905,6.965-7.315,10.477c-2.883,4.195-5.731,8.416-8.543,12.658c-0.454,0.686-0.649,1.542-1.186,2.872
			c1.544-0.098,2.698,0.169,3.399-0.278c2.333-1.488,4.56-3.16,6.725-4.893c3.746-2.993,7.111-6.52,11.938-8.146
			c0.098,0.376,0.177,0.551,0.179,0.727c0.003,0.464,0,0.93-0.052,1.389c-0.699,6.337,0.197,12.367,3.52,17.902
			c0.751,1.247,1.516,2.577,2.579,3.528c4.126,3.682,8.785,6.13,14.305,7.511c11.957,2.99,24.095,4.268,36.32,5.007
			c7.403,0.448,14.83,0.552,22.245,0.844c6.675,0.264,13.336,0.473,20.011-0.157c6.827-0.643,13.685-0.967,20.513-1.584
			c5.754-0.52,11.371-1.683,16.499-4.531c3.165-1.76,6.299-3.55,8.587-6.503c4.835-6.24,7.139-13.59,8.799-21.081
			c1.52-6.863,2.148-13.869,2.12-20.977c-0.015-4.359-0.636-8.367-1.942-12.49C476.515,294.133,472.169,290.332,466.885,288.112z
			 M477.629,310.934c-0.307,4.152-0.215,8.334-0.516,12.488c-0.49,6.8-2.412,13.275-4.691,19.674
			c-1.152,3.239-2.326,6.445-4.466,9.169c-1.075,1.368-2.172,2.849-3.578,3.809c-4.628,3.157-9.603,5.75-15.218,6.526
			c-5.498,0.761-11.051,1.156-16.585,1.645c-3.596,0.315-7.197,0.605-10.802,0.743c-4.818,0.185-9.642,0.33-14.464,0.285
			c-7.511-0.07-15.032-0.119-22.526-0.538c-7.973-0.446-15.968-0.976-23.864-2.103c-6.4-0.914-12.838-2.258-18.951-4.327
			c-8.357-2.825-12.949-9.251-14.064-18.001c-0.362-2.846-0.314-5.744-0.475-8.614c-0.088-1.559-0.177-3.119-0.348-4.669
			c-0.067-0.598-0.263-1.573-0.591-1.663c-0.619-0.166-1.653-0.06-2.035,0.363c-3.399,3.776-8.6,5.141-11.917,8.994
			c-0.038,0.042-0.147,0.023-0.457,0.064c0.199-0.501,0.289-0.939,0.523-1.282c2.814-4.14,5.648-8.268,8.481-12.395
			c1.209-1.757,2.398-3.528,3.658-5.249c1.897-2.594,2.916-5.52,3.508-8.644c0.691-3.641,1.392-7.283,2.215-10.897
			c0.449-1.968,0.96-3.972,1.807-5.79c1.156-2.478,3.465-3.827,5.929-4.765c6.306-2.403,12.895-3.313,19.607-3.527
			c6.944-0.222,13.886-0.521,20.829-0.747c8.521-0.275,17.024-1.239,25.567-0.575c7.772,0.603,15.56,1.021,23.307,1.835
			c4.684,0.49,9.304,1.578,13.951,2.397c0.82,0.144,1.637,0.406,2.461,0.423c6.783,0.139,13.117,2.353,19.547,4.143
			c4.194,1.168,7.163,4.148,10.243,6.956c0.264,0.24,0.472,0.591,0.602,0.931C475.962,301.902,477.986,306.086,477.629,310.934z"/>
        <path style="fill-rule:evenodd;clip-rule:evenodd;" d="M325.032,292.585c0.468-0.499,1.028-0.939,1.382-1.511
			c0.623-1.013,1.08-2.129,1.681-3.159c1.996-3.421,4.463-6.414,8.381-7.665c1.735-0.554,3.638-0.569,5.447-0.909
			c2.814-0.525,5.624-1.093,8.419-1.704c0.728-0.157,1.43-0.525,1.064-1.931c-0.973,0.077-2.017,0.099-3.038,0.256
			c-3.01,0.462-6.022,0.908-9.008,1.5c-1.698,0.336-3.493,0.666-4.983,1.481c-4.851,2.654-7.514,7.231-9.892,11.984
			c-0.178,0.357-0.047,0.869-0.061,1.309C324.626,292.353,324.829,292.468,325.032,292.585z"/>
        <path style="fill-rule:evenodd;clip-rule:evenodd;" d="M478.725,346.924c-0.297,0.636-0.617,1.259-0.888,1.904
			c-0.534,1.277-0.776,2.779-1.607,3.815c-4.215,5.255-8.816,10.069-15.674,11.871c-2.486,0.654-4.847,1.741-7.52,1.733
			c-1.531-0.005-1.578,0.303-1.052,2.199c5.89-0.43,11.383-2.251,16.262-5.502c3.534-2.354,6.633-5.382,9.012-8.94
			c1.342-2.004,2.561-4.259,2.098-6.87C479.145,347.064,478.936,346.994,478.725,346.924z"/>
        <path style="fill-rule:evenodd;clip-rule:evenodd;" d="M482.427,299.156c-0.304-7.297-4.338-12.041-10.682-14.851
			c-3.822-1.694-7.935-2.734-12.306-4.196c0.314,2.266,0.721,2.632,2.856,3.138c2.248,0.535,4.55,0.923,6.721,1.677
			c4.657,1.62,8.856,3.995,10.661,8.947c0.812,2.229,1.101,4.656,1.539,7.01c0.15,0.806,0.047,1.654,1.108,2.052
			c0.148-0.315,0.352-0.545,0.34-0.764C482.617,301.164,482.47,300.162,482.427,299.156z"/>
        <path style="fill-rule:evenodd;clip-rule:evenodd;" d="M436.602,278.357c5.029,1.506,10.135,2.621,15.668,2.925
			c-0.268-0.563-0.378-1.265-0.704-1.386c-1.372-0.52-2.8-1.158-4.228-1.21c-2.631-0.098-5.108-0.646-7.564-1.518
			c-1.261-0.448-2.589-0.698-3.975-1.061C435.844,278.081,435.83,278.126,436.602,278.357z"/>
        <path style="fill-rule:evenodd;clip-rule:evenodd;" d="M312.097,320.636c1.018-0.867,0.685-1.633-0.186-2.249
			c-1.762-1.243-3.568-2.422-5.355-3.63c-0.246,0.139-0.489,0.275-0.735,0.415c0.147,0.716,0.049,1.792,0.48,2.085
			C308.141,318.507,310.14,319.524,312.097,320.636z"/>
        <path style="fill-rule:evenodd;clip-rule:evenodd;" d="M363.258,274.263c-1.645-0.052-3.282-0.105-5.055-0.163
			c-0.048,0.567-0.1,1.18-0.181,2.139c1.459,0.053,2.742,0.162,4.021,0.131C363.478,276.335,363.553,276.143,363.258,274.263z"/>
        <path style="fill-rule:evenodd;clip-rule:evenodd;" d="M439.87,370.735c1.732-0.906,4.278,0.4,5.558-2.401
			C440.748,367.791,439.727,368.246,439.87,370.735z"/>
        <path style="fill-rule:evenodd;clip-rule:evenodd;" d="M317.302,314.351c0.24-0.246,0.379-0.924,0.209-1.186
			c-0.816-1.262-1.752-2.448-2.998-4.141c-0.962,2.776,0.533,4.041,1.653,5.403C316.317,314.611,317.091,314.563,317.302,314.351z"
        />
        <path style="fill-rule:evenodd;clip-rule:evenodd;" d="M308.841,323.685c-1.186-0.185-2.388-0.376-3.842-0.606
			c0.147,1.043,0.23,1.641,0.308,2.192C308.723,325.74,308.723,325.74,308.841,323.685z"/>
        <path style="fill-rule:evenodd;clip-rule:evenodd;" d="M397.494,274.573c1.285,0.37,1.74-0.33,1.773-1.398
			c0.065-2.155,0.051-4.311,0.073-6.469c-0.252-0.128-0.5-0.256-0.753-0.385c-0.516,0.518-1.467,1.03-1.474,1.551
			C397.088,270.099,397.343,272.327,397.494,274.573z"/>
        <path style="fill-rule:evenodd;clip-rule:evenodd;" d="M405.608,275.445c0.338,0.065,0.98-0.192,1.105-0.48
			c0.602-1.377,1.076-2.812,1.801-4.784c-2.847,0.729-3.077,2.674-3.595,4.36C404.848,274.769,405.315,275.387,405.608,275.445z"/>
        <path style="fill-rule:evenodd;clip-rule:evenodd;" d="M393.154,273.539c-0.499-1.093-1.003-2.199-1.612-3.539
			c-0.79,0.698-1.242,1.098-1.659,1.467C391.375,274.575,391.375,274.575,393.154,273.539z"/>
	</g>
</g>
</svg>
